<?xml version="1.0" encoding="utf-8"?>
<!-- Generator: Adobe Illustrator 15.0.0, SVG Export Plug-In . SVG Version: 6.00 Build 0)  -->
<!DOCTYPE svg PUBLIC "-//W3C//DTD SVG 1.1//EN" "http://www.w3.org/Graphics/SVG/1.1/DTD/svg11.dtd">
<svg version="1.1" id="Layer_1" xmlns="http://www.w3.org/2000/svg" xmlns:xlink="http://www.w3.org/1999/xlink" x="0px" y="0px"
	 width="20px" height="21px" viewBox="0 0 20 21" style="enable-background:new 0 0 20 21;" xml:space="preserve">
<style type="text/css">
<![CDATA[
	.st0{fill:#010202;}
]]>
</style>
<path class="st0" d="M15.3,11.5c0.8-0.6,1.4-1.3,2.1-2c0.3-0.3,0.5-0.6,0.8-0.9c1.4-1.4,2-2.8,1.8-4.2c-0.2-1.4-1.2-2.5-2.9-3.3
	c-2.1-1-4.2-1.1-5.7-1.1c-0.5,0-1,0-1.4,0C9.5,0,9,0,8.5,0C6.1,0,4.3,0.4,2.6,1.3C0.7,2.3,0.1,3.6,0,4.5c-0.1,0.9,0.1,2.4,1.6,3.9
	l0.6,0.6c0.7,0.7,1.4,1.5,2.2,2.1c2.4,2,3.6,3.6,3.1,6.4c-0.2,0.9,0,1.8,0.5,2.4c0.5,0.6,1.2,1,2,1l0.1,0c1,0,1.6-0.6,1.9-1
	c0.5-0.7,0.6-1.6,0.5-2.6C12.1,15.1,12.9,13.5,15.3,11.5z M10,16.5c0,0.5,0,1.2,0.1,1.4c0,0.1,0,0.2,0,0.3c0,0-0.1,0-0.1,0l0,1.4
	v-1.4c0,0-0.1,0-0.1,0c0,0,0,0,0-0.1C9.9,17.9,10,17.1,10,16.5c-0.3-3-2.2-5.9-4.2-7.6C5.1,8.3,4.5,7.7,3.8,7L3.2,6.4
	C2.6,5.7,2.4,5.2,2.4,4.9c0-0.3,0.4-0.7,1.1-1.1c1.4-0.7,2.9-1.1,4.9-1.1c0.5,0,0.9,0,1.5,0c0.5,0,0.9,0,1.4,0c2,0,3.4,0.3,4.8,0.9
	c1,0.5,1.4,0.9,1.4,1.2c0,0.3-0.2,0.8-1,1.6c-0.3,0.3-0.6,0.6-0.9,0.9c-0.6,0.7-1.2,1.3-1.9,1.8C12.2,10.6,10.3,13.5,10,16.5z"/>
<path class="st0" d="M10,16.6c0,0,0,0.1,0,0.1C10,16.6,10,16.6,10,16.6c0-0.3,0-0.4,0-0.5C10,16.2,10,16.4,10,16.6z"/>
</svg>
