<?xml version="1.0" encoding="utf-8"?>
<!-- Generator: Adobe Illustrator 15.0.0, SVG Export Plug-In . SVG Version: 6.00 Build 0)  -->
<!DOCTYPE svg PUBLIC "-//W3C//DTD SVG 1.1//EN" "http://www.w3.org/Graphics/SVG/1.1/DTD/svg11.dtd">
<svg version="1.1" id="Layer_1" xmlns="http://www.w3.org/2000/svg" xmlns:xlink="http://www.w3.org/1999/xlink" x="0px" y="0px"
	 width="18px" height="18px" viewBox="0 0 18 18" style="enable-background:new 0 0 18 18;" xml:space="preserve">
<style type="text/css">
<![CDATA[
	.st0{fill:#010202;}
]]>
</style>
<path class="st0" d="M14,6V2.3C14,1,13,0,11.8,0H2.2C1,0,0,1,0,2.3v9.4C0,13,1,14,2.2,14H4v-2H2.2c-0.2,0-0.3-0.1-0.3-0.3V2.3
	C1.9,2.1,2,2,2.2,2h9.6c0.2,0,0.3,0.1,0.3,0.3V6H14z"/>
<rect x="4" y="1" class="st0" width="6" height="5"/>
<path class="st0" d="M15.8,18c1.2,0,2.2-1,2.2-2.3V6.3C18,5,17,4,15.8,4H6.2C5,4,4,5,4,6.3v9.4C4,17,5,18,6.2,18H15.8z M5.9,15.7
	V6.3C5.9,6.1,6,6,6.2,6h9.6c0.2,0,0.3,0.1,0.3,0.3v9.4c0,0.2-0.1,0.3-0.3,0.3H6.2C6,16,5.9,15.9,5.9,15.7z"/>
<rect x="8" y="5" class="st0" width="6" height="7"/>
</svg>
